<?xml version="1.0" standalone="no"?>
<!DOCTYPE svg PUBLIC "-//W3C//DTD SVG 20010904//EN"
 "http://www.w3.org/TR/2001/REC-SVG-20010904/DTD/svg10.dtd">
<svg version="1.0" xmlns="http://www.w3.org/2000/svg"
 width="1080.000000pt" height="1080.000000pt" viewBox="0 0 1080.000000 1080.000000"
 preserveAspectRatio="xMidYMid meet">
<metadata>
Created by potrace 1.14, written by Peter Selinger 2001-2017
</metadata>
<g transform="translate(0.000000,1080.000000) scale(0.100000,-0.100000)"
fill="#000000" stroke="none">
<path d="M985 8220 c-4 -6 -2 -17 4 -24 6 -7 8 -16 4 -19 -3 -4 -1 -7 5 -7 7
0 12 -7 12 -15 0 -8 5 -15 10 -15 6 0 10 -7 10 -15 0 -8 5 -15 11 -15 5 0 7
-4 4 -10 -3 -5 -2 -10 3 -10 9 0 57 -88 57 -105 0 -5 10 -20 22 -33 12 -13 28
-37 35 -53 7 -16 16 -29 19 -29 7 0 22 -40 20 -52 -1 -5 4 -8 10 -8 5 0 8 -4
5 -9 -4 -5 -3 -11 2 -13 7 -3 97 -147 97 -158 1 -10 38 -75 45 -80 4 -3 18
-24 30 -47 12 -24 26 -43 31 -43 5 0 9 -9 9 -19 0 -11 5 -23 10 -26 6 -3 10
-16 10 -27 0 -12 3 -18 7 -15 6 7 12 -1 52 -77 14 -25 28 -46 33 -46 4 0 7 -3
6 -7 -3 -11 42 -100 62 -121 13 -14 28 -40 35 -62 7 -21 30 -60 36 -60 4 0 10
-11 13 -25 3 -13 16 -33 27 -44 12 -11 18 -24 15 -29 -3 -6 1 -13 10 -16 8 -3
12 -10 9 -16 -3 -5 -1 -10 4 -10 6 0 11 -9 11 -20 0 -11 4 -20 9 -20 5 0 11
-8 15 -17 3 -10 26 -49 51 -88 24 -38 45 -78 45 -87 0 -10 7 -18 15 -18 8 0
15 -3 14 -7 -2 -16 14 -53 22 -53 5 0 9 -6 9 -14 0 -8 3 -16 8 -18 4 -1 22
-32 41 -68 18 -36 49 -89 68 -118 19 -28 31 -57 28 -62 -3 -6 -1 -10 4 -10 6
0 11 -7 11 -16 0 -8 5 -12 10 -9 5 3 10 0 10 -7 0 -7 20 -44 44 -82 24 -39 42
-76 39 -83 -3 -7 2 -13 12 -13 9 0 13 -4 10 -10 -3 -5 -1 -10 5 -10 6 0 8 -4
5 -10 -3 -5 -2 -10 3 -10 5 0 17 -18 27 -40 10 -22 22 -40 27 -40 4 0 8 -7 8
-15 0 -8 5 -15 10 -15 6 0 9 -3 8 -7 -1 -5 3 -18 10 -30 7 -13 10 -23 7 -23
-4 0 0 -7 7 -15 27 -30 38 -44 38 -51 0 -3 9 -17 20 -31 11 -14 20 -34 20 -44
0 -11 5 -19 10 -19 6 0 10 -7 10 -15 0 -8 5 -15 11 -15 5 0 8 -4 5 -9 -3 -5 1
-14 9 -21 8 -7 15 -17 15 -22 0 -5 7 -16 15 -25 8 -8 12 -19 9 -25 -4 -7 -2
-8 4 -4 10 6 17 -7 10 -17 -2 -2 5 -11 15 -21 9 -10 15 -22 12 -27 -4 -5 -1
-9 4 -9 6 0 11 -7 11 -16 0 -8 5 -12 10 -9 6 3 10 -3 10 -14 0 -12 5 -21 11
-21 5 0 7 -4 4 -10 -3 -5 -1 -10 5 -10 6 0 8 -4 5 -10 -3 -5 -1 -10 5 -10 6 0
8 -4 5 -10 -3 -5 -1 -10 4 -10 6 0 18 -18 27 -40 9 -22 20 -40 26 -40 5 0 7
-4 4 -9 -3 -4 6 -21 19 -37 14 -16 28 -39 31 -51 4 -13 11 -23 17 -23 6 0 7
-3 4 -6 -4 -4 3 -15 14 -25 11 -9 19 -20 18 -24 -4 -13 25 -74 33 -69 4 3 8
-1 8 -9 0 -8 7 -20 15 -27 8 -7 12 -16 9 -21 -3 -5 -1 -9 3 -9 5 0 16 -17 26
-37 23 -51 66 -124 85 -145 8 -10 12 -18 8 -18 -4 0 0 -7 8 -16 9 -8 14 -20
11 -25 -4 -5 -1 -9 4 -9 6 0 11 -5 11 -11 0 -6 14 -30 30 -55 17 -24 27 -44
23 -44 -4 0 -3 -4 2 -8 17 -12 45 -60 45 -77 0 -8 5 -15 10 -15 6 0 10 -7 10
-15 0 -8 5 -15 10 -15 6 0 10 -7 10 -15 0 -8 5 -15 11 -15 5 0 8 -4 4 -9 -3
-6 3 -14 12 -20 10 -6 14 -11 9 -11 -5 0 -2 -8 7 -17 8 -10 17 -25 19 -33 2
-8 9 -21 16 -28 7 -8 10 -18 7 -23 -4 -5 1 -9 9 -9 10 0 13 -6 10 -15 -4 -8
-1 -15 5 -15 6 0 11 -7 11 -15 0 -8 4 -15 8 -15 5 0 22 -26 38 -57 15 -32 39
-73 51 -92 13 -18 20 -37 17 -42 -3 -5 0 -9 6 -9 6 0 14 -8 17 -17 4 -10 13
-24 20 -31 7 -7 16 -25 20 -40 3 -15 11 -32 17 -39 29 -33 34 -41 29 -47 -4
-3 -1 -6 5 -6 7 0 12 -6 12 -13 0 -7 9 -23 20 -35 12 -12 18 -22 15 -22 -4 0
3 -16 15 -35 12 -19 19 -35 15 -35 -3 0 6 -12 20 -27 14 -16 28 -37 31 -48 4
-10 13 -25 20 -33 8 -7 12 -18 9 -23 -4 -5 -1 -9 6 -9 7 0 10 -3 6 -6 -3 -4
-1 -12 6 -20 33 -37 37 -44 37 -63 0 -5 6 -16 13 -23 14 -15 51 -71 52 -78 0
-3 4 -11 8 -17 5 -7 6 -17 3 -22 -3 -5 1 -11 9 -14 8 -4 24 -25 36 -48 12 -24
28 -49 35 -57 8 -7 12 -18 9 -23 -4 -5 -2 -9 3 -9 8 0 16 -16 20 -43 1 -4 7
-14 14 -22 26 -28 34 -41 73 -117 22 -43 44 -78 48 -78 5 0 5 -4 2 -10 -3 -5
-2 -10 4 -10 5 0 12 -8 16 -19 3 -10 14 -29 25 -41 11 -12 17 -27 14 -31 -3
-5 0 -9 5 -9 6 0 11 -7 11 -15 0 -8 5 -15 10 -15 6 0 10 -9 10 -20 0 -11 5
-20 11 -20 5 0 8 -4 5 -8 -3 -5 6 -21 19 -36 14 -16 22 -32 20 -36 -3 -4 2
-10 10 -14 8 -3 15 -13 15 -21 0 -9 4 -14 9 -11 4 3 7 -6 5 -20 -2 -25 -2 -25
17 -8 10 9 16 20 14 24 -3 4 2 10 10 14 8 3 15 12 15 19 0 8 9 22 20 32 11 10
17 22 14 26 -3 5 0 9 5 9 6 0 11 9 11 20 0 11 5 20 11 20 6 0 9 5 7 12 -3 7 6
22 20 35 13 12 21 27 17 32 -3 6 -2 11 4 11 5 0 13 9 16 21 4 12 16 30 26 40
10 10 19 27 19 38 0 10 11 30 25 45 13 14 25 29 25 31 0 3 0 12 0 21 0 8 5 12
10 9 6 -3 10 1 10 9 0 9 5 16 11 16 5 0 8 4 4 9 -3 6 3 14 12 20 10 6 14 11 9
11 -5 0 -1 9 10 21 10 12 17 22 15 23 -7 2 10 46 19 46 4 0 10 8 14 18 5 17
26 52 36 62 3 3 14 23 25 45 10 22 32 59 47 83 15 24 28 47 28 51 0 5 7 12 16
15 9 4 14 9 11 13 -4 3 -1 13 6 21 10 13 9 15 -3 8 -8 -4 -6 0 4 8 11 9 16 16
10 16 -5 0 -1 5 9 11 9 5 17 15 17 21 0 6 8 20 18 31 9 11 12 17 5 13 -7 -3 5
19 26 51 22 31 36 63 33 72 -3 9 -1 12 6 7 8 -5 12 0 12 14 0 12 4 19 9 16 4
-3 16 12 26 34 10 22 22 40 27 40 5 0 6 5 3 10 -3 5 -2 10 3 10 9 0 32 50 31
67 -1 3 6 10 15 15 9 5 14 13 11 19 -4 5 1 12 9 15 9 3 16 12 16 20 0 8 5 14
11 14 5 0 7 5 4 10 -3 6 -1 10 5 10 6 0 9 4 6 9 -3 5 1 14 9 21 8 7 13 16 10
20 -2 4 4 16 15 27 10 12 17 23 14 26 -2 2 2 10 11 17 8 7 15 18 15 24 0 7 8
21 18 32 19 20 36 54 34 67 -1 4 3 7 8 7 6 0 10 9 10 19 0 10 7 22 16 25 9 4
14 9 11 12 -3 4 5 21 18 39 14 17 25 36 25 42 0 5 9 19 20 31 11 12 19 25 18
29 -3 14 35 82 44 77 4 -3 8 0 8 6 0 6 5 8 10 5 6 -4 8 -11 5 -16 -4 -5 1 -9
10 -9 9 0 13 -4 10 -10 -3 -5 -1 -10 4 -10 6 0 10 -3 9 -7 -3 -13 29 -80 41
-87 6 -4 9 -12 6 -17 -4 -5 -2 -9 3 -9 5 0 15 -13 22 -30 7 -16 16 -30 21 -30
8 0 24 -40 21 -52 -1 -5 3 -8 9 -8 5 0 7 -4 4 -10 -3 -5 -2 -10 2 -10 8 0 26
-29 39 -63 3 -9 10 -17 14 -17 4 0 20 -26 35 -57 15 -32 35 -67 44 -77 13 -16
13 -18 1 -11 -8 4 -6 -2 5 -13 36 -37 44 -50 38 -56 -4 -3 -1 -6 6 -6 7 0 9
-4 6 -10 -3 -5 -1 -10 5 -10 6 0 8 -4 5 -10 -3 -5 -1 -10 4 -10 6 0 11 -9 11
-20 0 -11 4 -20 9 -20 11 0 26 -40 22 -55 -1 -5 1 -7 5 -3 8 8 70 -89 86 -134
6 -16 14 -28 18 -28 9 0 25 -40 22 -52 -1 -5 2 -8 8 -8 5 0 10 -7 10 -17 0 -9
3 -13 6 -10 8 7 44 -56 50 -87 2 -11 10 -24 19 -28 8 -5 15 -16 15 -24 0 -8 7
-17 15 -20 8 -4 15 -12 15 -20 0 -8 6 -14 13 -14 9 0 9 -2 -1 -9 -11 -7 -10
-9 3 -15 9 -3 13 -10 10 -16 -3 -5 -2 -10 3 -10 4 0 14 -16 22 -35 8 -19 18
-35 24 -35 5 0 7 -3 3 -6 -3 -4 -1 -12 6 -20 33 -37 52 -71 49 -86 -1 -5 3 -8
10 -8 6 0 8 -3 5 -7 -4 -3 0 -15 10 -25 9 -10 13 -18 9 -18 -4 0 2 -10 14 -22
11 -12 20 -28 20 -35 0 -7 5 -13 10 -13 6 0 10 -6 10 -13 0 -7 9 -23 19 -34
11 -12 17 -24 14 -27 -4 -3 -1 -6 5 -6 7 0 11 -3 11 -7 -4 -23 1 -31 51 -91 6
-7 8 -17 5 -22 -3 -6 -1 -10 4 -10 6 0 11 -7 11 -15 0 -8 4 -15 9 -15 4 0 18
-21 29 -47 23 -51 39 -79 60 -101 6 -7 12 -17 12 -22 0 -13 30 -40 43 -40 7 0
6 4 -3 10 -10 6 -11 10 -2 10 6 0 11 3 10 8 -4 13 39 72 46 64 4 -4 6 -2 5 3
-4 15 11 55 22 55 5 0 9 9 9 19 0 11 7 26 15 34 8 8 16 21 17 28 2 7 11 22 21
33 9 11 17 26 17 33 0 7 5 13 10 13 6 0 10 7 10 15 0 8 5 15 12 15 6 0 9 3 5
6 -3 3 8 26 23 51 16 25 27 50 24 55 -3 4 2 11 10 14 9 3 16 15 16 25 0 11 7
22 15 25 8 4 15 10 15 16 0 5 7 16 15 24 8 9 15 24 15 34 0 11 8 24 18 29 9 6
13 11 9 11 -5 0 0 13 9 29 10 17 21 28 26 25 4 -3 5 3 1 12 -5 13 -3 15 8 9 8
-4 11 -5 7 0 -8 9 22 65 35 65 4 0 7 6 5 14 -2 7 11 35 29 62 17 27 32 54 34
59 1 6 9 16 16 23 7 7 13 20 13 28 0 8 5 14 11 14 5 0 8 4 4 9 -3 6 3 14 12
20 10 5 17 11 16 13 -5 7 10 48 18 48 5 0 9 7 9 15 0 8 9 23 19 32 11 9 18 20
15 25 -3 4 1 11 10 14 8 3 13 14 11 25 -2 11 -1 17 4 15 4 -3 13 11 20 30 7
19 17 32 22 29 5 -4 9 2 9 11 0 9 10 31 23 48 23 31 38 59 43 84 1 8 10 22 20
33 18 20 33 45 56 89 7 14 16 28 21 31 5 3 8 8 8 10 -2 13 13 49 20 49 5 0 9
7 9 15 0 9 7 18 15 21 8 4 12 10 9 15 -3 5 0 9 7 9 7 0 9 3 6 7 -4 3 2 16 12
27 11 12 19 23 19 26 -2 13 14 50 23 50 5 0 9 7 9 16 0 8 6 22 12 29 31 35 38
45 31 45 -4 0 -3 4 2 8 18 12 46 62 40 71 -2 5 2 12 11 15 9 4 14 9 11 12 -3
4 5 22 20 40 14 19 21 34 17 34 -5 0 -2 5 6 10 8 5 15 14 15 20 0 6 5 14 10
18 6 4 19 27 30 52 11 25 22 47 25 50 12 11 58 88 79 132 12 26 27 48 33 50 6
2 13 14 15 26 1 13 12 32 23 44 11 12 20 28 20 35 0 7 5 13 11 13 5 0 8 4 4 9
-3 5 -1 12 5 16 6 4 8 11 5 16 -4 5 1 12 9 15 9 3 16 11 16 16 0 5 9 22 20 38
11 15 17 30 14 33 -3 3 4 10 15 17 12 6 19 15 16 21 -4 5 -1 9 5 9 6 0 9 4 5
9 -3 6 3 14 12 20 10 6 14 11 9 11 -4 0 -1 11 8 25 9 14 13 25 9 25 -5 0 -3 4
2 8 14 9 67 90 81 122 27 65 36 80 44 80 6 0 10 7 10 15 0 8 9 24 20 35 11 11
17 20 14 20 -4 0 -1 7 6 15 7 8 10 15 6 15 -3 0 1 8 9 18 8 9 14 19 13 22 -2
3 7 19 19 36 12 17 20 34 16 38 -3 3 -1 6 5 6 12 0 53 62 56 86 1 8 10 24 19
34 9 11 14 20 12 20 -3 0 -1 6 5 13 12 13 73 109 75 117 6 20 26 59 37 71 19
21 38 57 38 71 0 7 9 19 20 26 11 7 20 21 20 32 0 11 5 20 10 20 6 0 10 9 10
19 0 11 7 26 15 35 8 8 15 19 15 25 0 6 5 11 10 11 6 0 10 7 10 15 0 8 4 15 9
15 7 0 20 26 25 52 0 4 7 13 14 19 6 7 12 19 12 26 0 7 5 13 12 13 6 0 9 3 5
6 -3 3 3 15 14 27 10 11 19 27 19 34 0 7 4 13 9 13 9 0 27 39 23 52 -1 3 5 12
13 18 8 7 15 18 15 26 0 7 8 18 18 23 9 6 14 11 9 11 -4 0 -1 10 8 23 8 13 12
27 8 32 -5 4 -3 5 3 2 7 -4 17 6 24 23 7 17 16 30 20 30 4 0 12 18 19 40 7 22
16 38 22 35 5 -4 9 -3 8 2 -4 15 24 63 33 57 5 -3 7 -2 6 3 -3 10 33 85 45 94
5 3 7 9 5 12 -1 2 9 24 24 47 16 23 28 46 28 51 0 5 4 9 9 9 8 0 24 37 22 53
-1 4 3 7 9 7 5 0 10 5 10 11 0 6 19 41 43 77 39 61 69 118 71 133 1 3 9 13 19
23 9 10 17 22 17 27 0 6 18 37 40 70 23 32 38 59 34 59 -3 0 -2 6 4 13 6 6 12
17 14 22 1 6 7 9 13 7 5 -2 7 0 3 4 -4 4 1 19 12 34 11 16 20 33 20 39 0 6 3
11 8 11 7 0 36 57 37 75 1 6 6 9 12 8 6 -1 10 5 9 14 -3 16 9 35 45 73 8 9 13
22 11 28 -2 7 0 12 5 12 5 0 15 16 23 35 8 19 18 35 22 35 5 0 7 4 4 9 -3 5 1
14 9 21 8 7 15 18 15 26 0 7 8 17 18 23 9 5 16 12 15 15 -6 13 -2 27 6 22 5
-3 11 4 14 17 2 12 8 30 12 40 7 16 -3 17 -118 17 -117 0 -126 -1 -132 -20 -3
-11 -11 -20 -17 -20 -6 0 -9 -3 -6 -6 6 -5 -26 -60 -52 -91 -6 -7 -8 -13 -4
-13 3 0 1 -6 -5 -13 -6 -8 -8 -17 -4 -20 3 -4 1 -7 -6 -7 -7 0 -9 -5 -6 -10 3
-6 -1 -13 -9 -16 -9 -3 -16 -13 -16 -21 0 -8 -4 -12 -8 -9 -5 3 -9 -1 -9 -8 0
-17 -42 -86 -52 -86 -4 0 -8 -6 -8 -12 -1 -21 -7 -42 -18 -55 -5 -7 -15 -18
-20 -25 -6 -7 -21 -34 -35 -60 -13 -26 -28 -44 -34 -41 -5 3 -6 2 -3 -4 3 -5
0 -21 -8 -36 -8 -15 -11 -27 -7 -27 4 0 -1 -5 -11 -11 -9 -5 -17 -17 -17 -24
0 -8 -5 -15 -11 -15 -5 0 -7 -4 -4 -10 3 -5 1 -10 -5 -10 -10 0 -35 -48 -32
-62 1 -5 -2 -8 -8 -8 -5 0 -10 -5 -10 -11 0 -6 -9 -23 -20 -39 -11 -15 -17
-30 -13 -33 3 -4 -2 -9 -11 -13 -9 -3 -16 -12 -16 -18 0 -7 -9 -22 -20 -34
-12 -12 -18 -22 -14 -22 3 0 1 -6 -5 -13 -6 -8 -8 -17 -4 -20 3 -4 0 -7 -7 -7
-7 0 -10 -3 -7 -6 4 -4 -6 -23 -22 -43 -16 -20 -31 -46 -35 -58 -4 -13 -12
-23 -17 -23 -5 0 -9 -7 -9 -15 0 -8 -5 -15 -11 -15 -5 0 -7 -4 -4 -10 3 -5 1
-10 -5 -10 -6 0 -8 -4 -5 -10 3 -5 1 -10 -4 -10 -6 0 -10 -3 -10 -7 3 -18 -2
-31 -21 -51 -12 -12 -18 -22 -15 -22 3 0 -3 -10 -14 -22 -11 -11 -18 -24 -16
-28 2 -4 -5 -17 -16 -28 -11 -12 -17 -22 -13 -22 3 0 1 -7 -6 -15 -7 -8 -9
-15 -4 -15 5 0 1 -5 -9 -11 -9 -6 -15 -14 -12 -20 4 -5 1 -9 -4 -9 -6 0 -11
-7 -11 -15 0 -7 -6 -18 -13 -22 -14 -9 -42 -63 -39 -76 1 -4 -5 -10 -14 -14
-13 -5 -13 -7 -2 -14 10 -7 10 -9 -2 -9 -8 0 -21 -15 -29 -32 -8 -18 -27 -51
-43 -74 -16 -22 -30 -50 -31 -62 -1 -12 -5 -22 -9 -22 -5 0 -12 -8 -15 -17 -4
-10 -15 -27 -25 -37 -9 -10 -15 -22 -13 -26 2 -3 -9 -21 -25 -40 -16 -19 -26
-39 -22 -48 3 -9 1 -13 -5 -9 -6 4 -13 -6 -17 -24 -3 -17 -10 -28 -16 -24 -5
3 -7 0 -4 -8 3 -8 -3 -21 -13 -28 -10 -8 -19 -21 -21 -29 -2 -8 -8 -17 -13
-18 -5 -2 -7 -8 -3 -13 3 -5 0 -9 -5 -9 -6 0 -11 -6 -11 -14 0 -8 -7 -22 -16
-30 -8 -9 -12 -16 -8 -16 3 0 1 -7 -6 -15 -7 -8 -9 -15 -4 -15 5 0 1 -5 -8
-11 -10 -5 -18 -16 -18 -23 0 -7 -9 -21 -20 -31 -11 -10 -17 -21 -15 -25 3 -5
2 -10 -2 -12 -5 -1 -21 -29 -38 -60 -16 -32 -33 -58 -37 -58 -4 0 -8 -9 -8
-20 0 -10 -6 -23 -14 -27 -8 -4 -15 -11 -16 -15 -3 -22 -48 -107 -54 -101 -3
3 -6 1 -6 -6 0 -7 -9 -25 -19 -40 -11 -15 -21 -34 -23 -42 -2 -8 -10 -19 -18
-26 -8 -6 -15 -15 -16 -20 -2 -17 -19 -50 -61 -115 -24 -36 -43 -74 -43 -83 0
-10 -5 -13 -12 -9 -8 5 -9 2 -5 -9 3 -10 2 -17 -3 -17 -6 0 -10 -7 -10 -15 0
-8 -4 -15 -10 -15 -5 0 -10 -5 -10 -11 0 -6 -14 -31 -32 -57 -18 -26 -32 -48
-31 -49 5 -6 -28 -73 -36 -73 -5 0 -14 -13 -21 -30 -7 -16 -16 -30 -21 -30 -5
0 -8 -3 -7 -7 4 -13 -74 -153 -84 -153 -5 0 -6 -4 -3 -10 3 -5 1 -10 -5 -10
-6 0 -8 -4 -5 -10 3 -5 2 -10 -3 -10 -5 0 -15 -13 -22 -30 -7 -16 -17 -27 -23
-23 -5 3 -7 2 -4 -3 8 -13 -29 -94 -43 -94 -6 0 -8 -5 -5 -10 3 -6 -1 -13 -9
-16 -9 -3 -13 -10 -10 -15 3 -5 0 -9 -6 -9 -6 0 -9 -4 -6 -9 3 -5 -1 -14 -9
-21 -8 -7 -12 -16 -9 -21 3 -5 0 -9 -6 -9 -6 0 -8 -5 -5 -10 3 -6 -1 -13 -9
-16 -9 -3 -14 -10 -11 -14 3 -5 -2 -16 -11 -24 -8 -9 -13 -16 -9 -16 4 0 -1
-7 -9 -16 -9 -8 -16 -22 -16 -30 0 -8 -4 -12 -10 -9 -5 3 -10 -1 -10 -9 0 -9
-5 -16 -10 -16 -6 0 -9 -3 -8 -7 4 -15 -21 -73 -31 -73 -6 0 -10 -6 -9 -12 2
-7 -2 -12 -8 -11 -6 1 -11 -8 -10 -20 0 -12 -4 -21 -9 -20 -6 1 -12 -8 -12
-20 -1 -11 -9 -25 -18 -29 -8 -5 -13 -13 -10 -19 4 -5 1 -9 -5 -9 -6 0 -8 -4
-5 -10 3 -6 1 -10 -4 -10 -6 0 -10 -3 -10 -7 3 -19 -2 -34 -9 -29 -4 2 -14
-10 -22 -27 -7 -18 -26 -51 -42 -74 -15 -23 -28 -46 -28 -52 0 -6 -5 -11 -11
-11 -5 0 -7 -4 -4 -10 3 -5 -3 -19 -14 -31 -11 -12 -18 -26 -15 -30 2 -4 -1
-11 -8 -16 -16 -10 -31 -34 -57 -90 -11 -24 -25 -43 -31 -43 -6 0 -8 -4 -5
-10 3 -5 -12 -35 -34 -67 -22 -32 -37 -61 -35 -65 3 -5 0 -8 -5 -8 -6 0 -10
-3 -9 -7 3 -13 -24 -63 -34 -63 -4 0 -8 -6 -8 -13 0 -7 -8 -22 -17 -33 -10
-11 -19 -26 -21 -34 -2 -8 -8 -17 -13 -18 -5 -2 -9 -10 -9 -18 0 -18 -59 -114
-71 -114 -5 0 -8 -3 -7 -7 3 -13 -35 -83 -44 -83 -5 0 -7 -4 -3 -9 3 -5 0 -15
-7 -23 -7 -7 -14 -20 -16 -28 -2 -8 -18 -35 -36 -60 -18 -25 -31 -51 -28 -59
2 -8 0 -11 -6 -7 -6 3 -12 1 -14 -5 -4 -13 -41 39 -41 58 0 7 -6 14 -13 17
-11 4 -39 57 -57 109 -4 9 -11 17 -16 17 -5 0 -15 16 -22 35 -7 19 -17 35 -21
35 -4 0 -8 7 -8 15 0 8 -3 15 -7 15 -9 0 -33 49 -33 67 0 7 -3 13 -7 13 -10 0
-47 62 -45 73 1 4 -5 10 -13 13 -8 4 -15 15 -15 25 0 10 -4 19 -10 19 -5 0
-10 7 -10 15 0 8 -4 15 -10 15 -5 0 -10 8 -10 19 0 10 -7 24 -15 31 -9 7 -14
18 -11 25 2 6 -5 17 -15 23 -10 7 -19 19 -19 26 0 8 -3 16 -7 18 -5 2 -19 24
-32 51 -13 26 -28 47 -32 47 -5 0 -6 6 -4 13 3 6 -8 27 -24 46 -17 19 -28 38
-25 42 2 4 -3 10 -12 13 -8 3 -13 10 -10 14 3 5 -8 30 -24 55 -15 25 -26 48
-23 51 4 3 1 6 -5 6 -7 0 -18 16 -26 35 -8 19 -20 35 -26 35 -7 0 -10 6 -8 12
3 7 -1 19 -9 26 -7 8 -11 18 -8 23 4 5 1 9 -6 9 -7 0 -10 3 -6 6 6 6 -1 17
-35 55 -10 10 -18 22 -18 27 0 4 -10 23 -22 42 -12 19 -23 37 -24 40 -1 3 -5
15 -9 28 -4 12 -11 22 -16 22 -5 0 -9 4 -9 9 0 5 -16 33 -35 62 -19 29 -32 56
-29 61 3 4 1 8 -3 8 -5 0 -20 22 -34 50 -13 27 -27 50 -31 50 -5 0 -8 7 -8 15
0 8 -4 15 -9 15 -9 0 -35 58 -32 73 0 4 -4 7 -9 7 -6 0 -10 7 -10 15 0 8 -4
15 -10 15 -5 0 -10 5 -10 11 0 5 5 7 12 3 7 -4 8 -3 4 4 -7 12 27 86 50 110 8
7 14 19 14 26 0 7 13 31 28 52 15 21 34 55 42 74 8 19 20 39 27 43 7 4 13 15
13 23 0 9 5 12 13 8 6 -4 9 -4 5 1 -7 7 17 63 31 75 5 4 25 40 78 143 8 15 19
25 24 21 5 -3 8 -2 7 3 -4 12 54 126 72 141 13 12 13 13 0 6 -13 -7 -13 -6 0
11 8 11 23 28 32 39 10 10 15 23 12 28 -3 4 0 8 6 8 6 0 8 5 5 10 -3 6 -2 10
3 10 6 0 13 11 16 25 4 14 10 24 15 21 4 -3 8 0 8 7 0 7 16 38 36 69 19 31 33
59 30 62 -4 3 -1 6 5 6 7 0 12 9 12 20 0 11 5 20 12 20 6 0 9 3 5 6 -3 4 -1
12 6 20 32 36 74 112 70 126 -2 4 3 7 10 5 6 -1 11 6 9 16 -2 9 2 17 8 17 5 0
10 6 10 14 0 7 11 25 25 40 14 15 23 31 20 36 -3 4 2 11 11 14 8 3 12 10 9 16
-3 5 -1 10 4 10 6 0 11 7 11 15 0 8 4 15 10 15 5 0 9 3 8 8 -3 9 30 72 51 96
13 16 13 18 1 11 -8 -4 -3 5 13 19 15 15 25 31 22 37 -4 5 1 12 9 15 9 3 14
10 11 14 -3 4 6 24 20 44 14 20 25 41 25 47 0 6 4 7 10 4 6 -3 7 1 4 9 -3 9
-1 16 5 16 6 0 11 5 11 11 0 6 7 17 15 26 8 8 13 19 10 24 -4 5 -2 9 2 9 5 0
15 16 22 36 7 19 15 33 18 30 3 -3 13 9 22 27 10 18 27 49 39 70 12 20 22 40
22 45 0 4 6 14 13 22 7 8 13 19 13 24 1 11 24 44 47 68 9 10 17 21 17 26 2 17
53 112 61 112 5 0 8 3 7 8 -4 10 35 72 45 72 4 0 5 5 2 10 -3 6 -1 10 6 10 7
0 9 3 6 6 -3 4 -1 16 5 28 7 11 11 25 10 29 -1 4 5 10 13 13 8 4 15 12 15 20
0 8 5 14 11 14 5 0 7 5 4 10 -3 6 -1 10 4 10 6 0 11 5 11 12 0 6 12 27 27 46
15 20 21 32 14 28 -12 -8 49 94 78 128 13 16 13 18 1 12 -13 -7 -13 -6 0 6 8
7 24 32 35 55 11 24 23 43 28 43 4 0 7 7 7 15 0 9 9 25 20 37 10 12 17 25 14
30 -3 4 2 8 11 8 9 0 14 4 10 9 -3 5 2 16 10 25 9 8 15 18 15 21 -2 13 75 143
82 139 5 -3 8 4 8 14 0 11 7 25 15 32 9 7 13 15 11 18 -7 7 26 62 37 62 4 0 5
5 2 10 -3 6 -1 10 5 10 6 0 8 5 5 10 -3 6 -2 10 3 10 6 0 13 11 16 25 4 14 11
23 17 19 6 -3 9 2 7 12 -2 12 2 18 10 16 8 -1 11 2 7 8 -4 6 -3 16 3 23 5 7
12 20 15 30 6 16 -153 17 -3248 17 -2249 0 -3256 -3 -3260 -10z m578 -224 c-5
-8 -3 -8 8 0 18 15 139 14 139 0 0 -7 3 -7 8 0 9 14 144 14 154 0 6 -8 8 -8 8
0 0 15 242 15 252 0 6 -8 8 -8 8 0 0 15 150 15 169 0 10 -8 13 -8 8 0 -4 7 5
11 24 12 19 0 27 -3 23 -10 -5 -7 -2 -8 7 -2 21 13 312 13 321 0 6 -8 8 -7 8
1 0 15 60 14 79 -1 11 -8 13 -8 8 0 -9 16 145 16 155 0 6 -8 8 -8 8 0 0 15 60
16 60 1 0 -9 2 -9 8 -1 9 15 254 15 264 0 5 -8 8 -8 8 0 0 7 25 11 73 10 64
-1 72 -3 69 -20 -2 -12 1 -16 9 -11 7 5 10 3 7 -6 -4 -13 -1 -20 28 -52 5 -7
21 -32 35 -57 13 -25 27 -47 32 -48 4 -2 5 -8 1 -13 -3 -5 0 -9 6 -9 6 0 8 -4
5 -10 -3 -5 -2 -10 4 -10 6 0 13 -11 17 -25 3 -14 10 -25 16 -25 5 0 6 -5 3
-10 -3 -6 0 -13 8 -16 9 -3 18 -16 21 -30 4 -13 11 -24 16 -24 6 0 10 -6 10
-12 0 -7 23 -51 50 -97 28 -46 50 -87 50 -91 0 -5 7 -11 16 -14 8 -3 13 -10 9
-15 -3 -5 -1 -12 5 -16 5 -3 10 -13 10 -21 0 -8 6 -22 13 -30 28 -34 32 -40
35 -54 2 -7 9 -18 16 -24 7 -6 26 -39 41 -73 16 -35 32 -63 36 -63 3 0 12 -13
19 -30 7 -16 17 -30 22 -30 6 0 8 -7 4 -15 -3 -8 -1 -15 4 -15 6 0 10 -7 10
-15 0 -8 5 -15 10 -15 6 0 10 -7 10 -15 0 -8 5 -15 11 -15 5 0 8 -4 4 -9 -3
-5 2 -16 10 -24 8 -9 15 -20 15 -26 0 -6 5 -11 10 -11 6 0 10 -7 10 -15 0 -8
4 -15 8 -15 7 0 33 -52 36 -72 0 -4 8 -15 16 -25 8 -10 21 -31 29 -46 8 -15
18 -27 23 -27 5 0 6 -5 3 -11 -4 -6 2 -19 14 -30 19 -18 25 -32 22 -51 0 -5 4
-8 10 -8 5 0 8 -4 5 -8 -3 -5 6 -20 19 -34 13 -14 21 -29 18 -32 -4 -3 -2 -6
3 -6 6 0 16 -16 23 -35 7 -19 17 -35 22 -35 5 0 9 -6 9 -14 0 -7 10 -26 22
-42 13 -16 16 -25 8 -20 -13 6 -13 6 0 -6 8 -7 24 -30 35 -50 11 -21 23 -38
27 -38 5 0 8 -9 8 -20 0 -11 5 -20 11 -20 5 0 8 -4 5 -9 -3 -5 1 -14 9 -21 8
-7 15 -17 15 -22 0 -5 13 -28 29 -51 48 -71 101 -174 93 -182 -4 -5 -1 -5 6
-1 7 4 12 1 12 -8 0 -9 5 -16 10 -16 6 0 10 -6 10 -14 0 -7 7 -19 15 -26 8 -7
12 -16 9 -21 -3 -5 -1 -9 4 -9 5 0 16 -17 25 -37 19 -46 49 -97 60 -101 4 -2
7 -10 7 -18 0 -8 5 -14 11 -14 5 0 7 -5 4 -10 -3 -6 1 -13 9 -16 9 -3 14 -10
11 -14 -3 -5 -1 -11 5 -15 6 -4 8 -11 5 -16 -4 -5 -1 -9 4 -9 6 0 11 -7 11
-15 0 -8 5 -15 10 -15 6 0 10 -7 10 -15 0 -8 4 -15 9 -15 5 0 14 -15 22 -32 7
-18 16 -35 20 -38 4 -3 9 -12 11 -20 2 -8 15 -34 31 -57 15 -23 27 -46 27 -52
0 -6 3 -11 8 -11 8 0 12 -7 52 -86 13 -27 30 -55 37 -62 7 -7 13 -18 13 -23 0
-20 2 -24 16 -32 8 -4 14 -14 14 -21 0 -8 7 -17 16 -20 9 -4 14 -9 11 -12 -3
-3 6 -25 19 -47 14 -23 27 -50 31 -59 3 -10 10 -18 15 -18 5 0 6 -4 3 -10 -3
-5 -2 -10 4 -10 6 0 13 -11 17 -25 3 -14 10 -25 15 -25 5 0 9 -9 9 -21 0 -11
5 -17 10 -14 9 5 15 -15 11 -37 0 -5 3 -8 9 -8 12 0 7 -39 -6 -48 -6 -4 -16
-23 -24 -42 -7 -19 -24 -48 -37 -63 -13 -16 -23 -34 -23 -41 0 -7 -11 -25 -24
-39 -13 -14 -21 -28 -18 -31 3 -3 0 -6 -7 -6 -7 0 -9 -4 -6 -10 3 -5 -15 -42
-41 -82 -25 -40 -47 -78 -48 -86 -2 -7 -9 -18 -17 -23 -8 -5 -9 -9 -4 -9 6 0
3 -6 -5 -13 -8 -7 -15 -19 -15 -27 0 -8 -5 -14 -12 -13 -7 2 -10 -4 -7 -12 3
-7 -4 -22 -15 -32 -12 -9 -21 -23 -21 -30 0 -7 -5 -13 -11 -13 -5 0 -8 -4 -5
-9 4 -5 1 -11 -4 -13 -6 -2 -12 -10 -14 -18 -2 -16 -25 -62 -35 -70 -3 -3 -13
-18 -21 -35 -8 -16 -17 -32 -20 -35 -3 -3 -19 -32 -35 -65 -17 -33 -36 -64
-42 -68 -7 -4 -13 -14 -13 -22 0 -8 -10 -24 -22 -36 -13 -12 -16 -18 -8 -14 8
4 2 -7 -15 -25 -16 -18 -24 -30 -18 -26 9 5 11 2 7 -8 -3 -9 -10 -16 -14 -16
-4 0 -11 -11 -14 -25 -4 -14 -11 -25 -17 -25 -6 0 -7 -5 -4 -10 3 -5 2 -10 -3
-10 -12 0 -53 -76 -45 -84 3 -3 2 -6 -4 -6 -6 0 -16 -13 -23 -29 -6 -16 -23
-44 -36 -62 -13 -18 -21 -36 -18 -40 3 -5 -2 -9 -10 -9 -9 0 -15 -3 -14 -7 2
-13 -59 -134 -69 -133 -4 0 -8 -3 -9 -7 -1 -15 -27 -63 -34 -63 -4 0 -13 -18
-20 -40 -7 -22 -21 -48 -30 -58 -10 -10 -21 -28 -24 -40 -4 -12 -12 -22 -17
-22 -5 0 -9 -7 -9 -15 0 -8 -5 -15 -11 -15 -5 0 -7 -5 -3 -11 4 -7 1 -10 -7
-7 -8 3 -14 10 -14 16 0 6 -7 20 -16 30 -9 10 -22 33 -30 50 -8 18 -17 32 -20
32 -4 0 -12 13 -19 30 -7 17 -16 30 -21 30 -4 0 -6 9 -4 20 2 11 0 18 -6 15
-5 -4 -9 0 -9 8 0 8 -7 20 -15 27 -9 7 -13 15 -11 17 3 3 -1 12 -7 19 -7 8
-16 20 -22 27 -5 7 -21 36 -35 64 -14 29 -28 53 -32 53 -5 0 -8 8 -8 18 0 10
-8 27 -18 38 -10 10 -21 27 -25 37 -3 9 -11 17 -17 17 -5 0 -10 9 -10 19 0 11
-5 23 -10 26 -6 4 -8 11 -5 16 4 5 1 9 -4 9 -6 0 -11 7 -11 15 0 8 -5 15 -11
15 -5 0 -7 5 -4 10 3 6 2 10 -3 10 -5 0 -17 18 -28 40 -10 22 -22 40 -26 40
-5 0 -8 7 -8 15 0 8 -5 15 -11 15 -5 0 -8 4 -4 10 3 5 -10 32 -30 60 -19 27
-35 54 -35 59 0 5 -7 14 -15 21 -8 7 -12 16 -9 21 3 5 0 9 -5 9 -6 0 -11 8
-11 18 0 10 -8 27 -18 38 -10 10 -26 35 -35 54 -10 19 -29 50 -42 69 -14 18
-22 37 -19 42 3 5 0 9 -6 9 -6 0 -9 4 -6 9 4 5 3 11 -2 13 -13 5 -52 65 -52
80 0 7 -9 19 -21 26 -12 7 -19 16 -16 18 3 3 -1 17 -8 31 -8 15 -11 31 -8 36
3 6 1 7 -6 3 -7 -5 -15 4 -22 23 -6 18 -16 28 -22 24 -5 -3 -7 -1 -3 5 3 6 -1
18 -10 26 -8 9 -12 16 -8 16 4 0 -1 9 -11 20 -10 11 -15 20 -11 20 4 0 0 7 -8
16 -9 8 -14 20 -11 25 4 5 1 9 -4 9 -6 0 -11 7 -11 16 0 8 -4 13 -9 9 -6 -3
-8 4 -6 15 2 11 0 18 -4 16 -7 -5 -55 70 -56 86 0 4 -8 16 -17 27 -9 11 -14
22 -11 25 4 3 1 6 -6 6 -7 0 -9 5 -6 10 3 6 1 10 -5 10 -6 0 -9 4 -6 9 4 5 3
11 -1 13 -5 1 -23 25 -41 51 -18 27 -27 45 -20 41 7 -5 3 5 -10 20 -12 16 -19
32 -16 37 3 5 1 9 -5 9 -5 0 -12 8 -16 19 -3 10 -16 31 -30 47 -13 15 -22 31
-19 36 3 4 1 8 -4 8 -10 0 -56 99 -53 113 1 5 -3 6 -8 3 -5 -4 -15 7 -23 24
-7 16 -16 30 -19 30 -7 0 -22 40 -20 53 1 4 -3 7 -9 7 -5 0 -10 6 -10 13 0 6
-9 23 -19 36 -10 14 -16 32 -13 40 3 9 1 13 -3 9 -9 -8 -42 31 -37 45 1 4 -2
7 -8 7 -5 0 -10 9 -10 20 0 11 -4 20 -10 20 -5 0 -10 9 -10 20 0 10 -6 23 -12
27 -7 4 -22 25 -32 46 -11 20 -23 37 -28 37 -4 0 -8 7 -8 15 0 8 -4 15 -10 15
-5 0 -10 7 -10 15 0 14 -36 85 -49 95 -12 10 -52 90 -44 90 4 0 -2 7 -13 15
-12 8 -24 27 -27 42 -3 15 -14 37 -24 48 -10 11 -25 34 -33 50 -8 17 -21 36
-28 43 -7 8 -10 17 -7 22 3 5 2 10 -2 12 -10 4 -42 57 -50 81 -3 9 -9 17 -14
17 -5 0 -9 7 -9 15 0 9 -6 18 -14 21 -8 3 -13 14 -11 25 2 11 0 17 -6 14 -5
-4 -9 3 -9 14 0 12 -4 21 -10 21 -5 0 -10 7 -10 15 0 8 -4 15 -10 15 -5 0 -10
7 -10 15 0 8 -4 15 -10 15 -5 0 -10 8 -10 18 0 9 -13 31 -28 47 -16 17 -28 38
-26 48 1 9 -2 17 -7 17 -5 0 -9 7 -9 15 0 8 -9 23 -19 32 -11 9 -18 20 -15 25
3 4 0 8 -6 8 -6 0 -8 5 -5 10 3 6 2 10 -4 10 -5 0 -13 9 -16 21 -4 12 -14 29
-23 40 -9 10 -17 24 -18 31 -4 24 -31 68 -37 61 -4 -3 -7 1 -7 10 0 10 -5 17
-11 17 -5 0 -7 5 -4 10 3 6 1 10 -4 10 -6 0 -11 9 -11 21 0 11 -4 17 -10 14
-6 -3 -7 1 -4 9 3 9 2 16 -2 16 -5 0 -20 23 -33 50 -14 28 -29 50 -33 50 -4 0
-8 6 -8 13 0 7 -9 23 -20 35 -12 12 -18 22 -15 22 3 0 -2 15 -12 33 -9 17 -16
35 -15 40 1 4 -2 7 -8 7 -5 0 -19 19 -31 43 -12 23 -25 44 -29 47 -3 3 -13 20
-21 38 -8 17 -18 32 -22 32 -5 0 -6 4 -2 9 3 5 -2 16 -10 24 -8 9 -15 18 -15
22 0 4 -7 13 -15 22 -8 8 -13 19 -10 24 4 5 2 9 -3 9 -5 0 -15 14 -22 30 -7
17 -16 30 -21 30 -5 0 -9 8 -9 19 0 10 -7 24 -15 31 -8 7 -12 16 -9 21 3 5 0
9 -5 9 -6 0 -11 4 -11 10 0 5 -8 19 -17 30 -10 11 -19 25 -19 30 -1 6 -2 15
-3 21 0 5 -6 7 -13 3 -6 -4 -8 -3 -4 4 3 6 2 13 -4 17 -6 4 -8 10 -5 14 2 5
-4 16 -15 26 -11 10 -20 24 -20 30 0 7 -7 18 -15 25 -9 7 -13 15 -11 18 3 2
-2 11 -10 19 -8 8 -12 19 -9 24 4 5 -1 6 -9 3 -11 -4 -13 0 -9 15 3 12 1 21
-6 21 -6 0 -11 9 -11 20 0 10 -8 24 -17 29 -10 6 -14 11 -10 11 4 0 -1 10 -13
22 -11 12 -20 30 -20 39 0 10 -6 19 -12 22 -7 2 38 4 99 4 80 0 111 -3 106
-11z m2167 2 c0 -9 3 -10 8 -2 9 15 153 15 171 0 10 -7 13 -8 8 0 -4 7 5 11
24 12 19 0 27 -3 23 -10 -5 -7 -2 -8 7 -2 19 12 300 13 292 1 -4 -6 -1 -7 8
-1 20 13 160 13 152 1 -4 -6 -1 -7 8 -1 21 13 173 14 181 0 6 -8 8 -8 8 1 0
15 60 14 79 -1 11 -8 13 -8 8 0 -9 16 145 16 155 0 6 -8 8 -8 8 0 0 15 60 16
60 1 0 -9 2 -9 8 -1 9 14 220 14 241 0 9 -6 12 -5 8 1 -8 13 292 12 312 -1 9
-6 12 -5 8 1 -5 8 14 11 57 10 39 -1 62 -5 59 -11 -4 -5 -1 -6 8 0 21 13 171
14 188 0 11 -8 13 -8 8 0 -9 15 175 14 185 -1 5 -7 8 -6 8 1 0 7 21 12 55 12
34 0 55 -5 55 -12 0 -8 2 -8 8 1 9 14 124 13 134 -2 5 -7 8 -7 8 1 0 15 170
15 170 0 0 -8 2 -8 8 0 8 13 160 14 179 1 6 -4 14 -3 17 2 8 13 116 11 116 -3
0 -8 2 -8 8 0 8 13 160 14 179 1 6 -4 14 -3 17 2 9 13 76 11 76 -2 0 -8 3 -7
9 1 4 8 19 12 32 10 18 -2 23 -8 21 -23 -2 -11 -7 -22 -10 -25 -4 -3 -14 -18
-23 -35 -9 -16 -21 -29 -28 -27 -7 1 -10 -2 -7 -7 4 -5 -3 -26 -15 -45 -11
-20 -18 -36 -15 -36 4 0 -2 -10 -14 -22 -11 -12 -20 -28 -20 -35 0 -7 -4 -13
-9 -13 -5 0 -13 -10 -17 -22 -4 -13 -13 -27 -20 -33 -7 -5 -14 -19 -16 -30 -2
-11 -5 -22 -8 -25 -9 -9 -30 -44 -40 -67 -5 -13 -14 -23 -20 -23 -6 0 -8 -4
-5 -10 3 -5 1 -10 -4 -10 -6 0 -11 -9 -11 -20 0 -11 -4 -20 -9 -20 -5 0 -15
-16 -21 -35 -6 -19 -16 -35 -22 -35 -5 0 -8 -5 -6 -12 2 -6 -3 -20 -11 -29
-25 -28 -35 -42 -51 -74 -8 -16 -21 -36 -28 -43 -7 -8 -10 -18 -7 -23 4 -5 1
-9 -5 -9 -6 0 -9 -4 -6 -8 3 -5 -2 -18 -12 -28 -9 -10 -23 -31 -29 -46 -7 -16
-17 -28 -23 -28 -5 0 -9 -3 -8 -7 3 -18 -97 -194 -114 -201 -4 -2 -6 -8 -2
-13 3 -5 0 -9 -6 -9 -6 0 -9 -3 -7 -7 2 -5 -3 -20 -12 -35 -9 -14 -29 -48 -45
-75 -16 -26 -33 -51 -38 -54 -6 -3 -9 -10 -9 -15 1 -17 -10 -44 -19 -44 -4 0
-11 -11 -14 -24 -3 -14 -12 -31 -20 -39 -8 -7 -36 -54 -62 -103 -26 -49 -53
-92 -58 -96 -6 -4 -7 -8 -2 -8 5 0 -1 -8 -12 -19 -12 -10 -22 -26 -22 -35 0
-9 -4 -16 -10 -16 -5 0 -10 -7 -10 -15 0 -8 -6 -15 -12 -15 -10 0 -10 -2 0 -8
9 -6 4 -17 -20 -43 -18 -19 -32 -36 -31 -39 6 -12 -10 -40 -19 -34 -6 4 -8 2
-5 -3 4 -6 -2 -21 -12 -34 -10 -13 -16 -30 -13 -38 3 -8 0 -11 -7 -7 -7 4 -11
0 -11 -11 0 -10 -11 -31 -25 -47 -14 -16 -25 -35 -25 -43 0 -7 -4 -13 -10 -13
-5 0 -10 -5 -10 -11 0 -6 -10 -25 -22 -42 -12 -17 -16 -27 -10 -23 7 4 1 -9
-13 -30 -14 -20 -25 -41 -25 -46 0 -5 -5 -6 -12 -2 -6 4 -8 3 -4 -4 3 -6 -1
-17 -9 -25 -8 -9 -15 -20 -15 -26 0 -6 -5 -11 -11 -11 -5 0 -7 -4 -4 -10 3 -5
1 -10 -4 -10 -6 0 -11 -8 -11 -18 0 -10 -9 -28 -19 -39 -11 -12 -17 -24 -14
-27 4 -3 0 -6 -7 -6 -7 0 -10 -3 -7 -6 7 -7 -29 -63 -48 -76 -6 -5 -6 -8 0 -8
6 0 4 -4 -3 -9 -7 -4 -15 -14 -16 -22 -5 -25 -29 -69 -38 -69 -5 0 -6 -4 -3
-10 3 -5 3 -10 -2 -10 -4 0 -13 -10 -19 -23 -34 -69 -68 -127 -74 -127 -4 0
-7 -6 -7 -13 0 -11 -36 -70 -53 -87 -3 -3 -6 -12 -8 -20 -2 -8 -8 -16 -13 -18
-5 -2 -9 -10 -9 -18 0 -8 -11 -31 -24 -51 l-24 -35 -26 41 c-14 22 -26 45 -26
51 0 5 -4 10 -10 10 -5 0 -10 9 -10 20 0 11 -5 20 -11 20 -5 0 -7 5 -4 10 3 6
1 10 -5 10 -6 0 -9 4 -6 8 3 5 -4 14 -14 22 -10 8 -17 17 -15 21 3 4 -2 12
-10 19 -8 7 -15 22 -15 33 0 11 -3 18 -6 14 -4 -3 -18 17 -32 46 -14 29 -28
54 -31 57 -3 3 -12 17 -20 33 -8 15 -18 27 -23 27 -5 0 -6 5 -3 10 3 6 1 10
-5 10 -6 0 -8 5 -4 11 3 6 2 14 -4 18 -6 3 -12 13 -14 21 -2 8 -11 23 -20 34
-10 11 -18 26 -18 33 0 8 -4 11 -10 8 -5 -3 -10 2 -10 13 0 10 -9 27 -20 37
-12 10 -18 25 -16 32 3 7 1 13 -4 13 -6 0 -10 5 -10 12 0 6 -11 26 -26 45 -14
18 -32 48 -40 66 -23 48 -50 95 -64 112 -7 8 -9 15 -4 15 5 0 4 4 -1 8 -15 10
-50 66 -47 75 1 4 -2 7 -6 7 -5 0 -16 19 -27 43 -10 23 -21 44 -25 47 -4 3
-15 22 -24 43 -9 22 -20 36 -26 32 -6 -4 -10 -3 -8 2 2 8 -50 120 -64 138 -21
26 -57 85 -52 85 3 0 -2 7 -10 16 -9 8 -16 21 -16 28 0 8 -7 19 -15 26 -8 7
-13 15 -10 19 2 4 -7 20 -20 35 -14 16 -30 41 -37 57 -7 16 -16 29 -20 29 -5
0 -8 9 -8 20 0 11 -5 20 -11 20 -5 0 -7 5 -4 10 3 6 1 10 -5 10 -6 0 -8 5 -5
10 3 6 1 10 -4 10 -6 0 -11 4 -11 9 0 5 -16 33 -35 62 -19 29 -32 56 -29 61 3
4 0 8 -5 8 -6 0 -11 7 -11 15 0 8 -9 24 -20 35 -11 11 -20 27 -20 35 0 8 -4
15 -10 15 -5 0 -10 7 -10 15 0 8 -4 15 -10 15 -5 0 -10 6 -10 14 0 7 -7 19
-15 26 -8 7 -15 19 -15 28 0 8 -17 40 -37 71 -21 31 -37 59 -35 64 1 4 -3 7
-8 7 -6 0 -10 9 -10 20 0 11 -4 20 -8 20 -5 0 -19 23 -32 50 -13 28 -28 50
-33 50 -6 0 -7 3 -4 6 4 4 -3 15 -14 25 -11 9 -20 19 -19 21 3 8 -20 57 -30
63 -5 3 -8 11 -5 16 4 5 1 9 -4 9 -6 0 -11 6 -11 13 0 7 -9 23 -20 35 -12 12
-18 22 -14 22 4 0 0 8 -8 18 -23 26 -48 79 -41 86 4 3 1 6 -5 6 -7 0 -12 6
-12 14 0 8 -7 17 -16 20 -8 3 -12 10 -9 16 3 5 1 10 -5 10 -6 0 -8 5 -5 10 3
6 2 10 -4 10 -5 0 -13 10 -17 23 -4 12 -12 25 -18 29 -6 4 -11 11 -11 15 -2
20 -42 93 -48 87 -4 -4 -7 0 -7 9 0 10 -5 17 -11 17 -5 0 -7 5 -4 10 3 6 1 10
-4 10 -6 0 -11 9 -11 21 0 11 -4 17 -10 14 -6 -3 -7 1 -4 9 7 19 44 21 44 4z"/>
</g>
</svg>
